<svg width="16" height="16" viewBox="0 0 16 16" fill="none" xmlns="http://www.w3.org/2000/svg">
<path d="M7.99939 11.8076C8.25395 11.8076 8.47107 11.7103 8.66573 11.5081L14.3783 5.66827C14.543 5.51104 14.6254 5.30141 14.6254 5.06183C14.6254 4.57517 14.251 4.19334 13.7569 4.19334C13.5173 4.19334 13.3002 4.29067 13.1355 4.45538L7.99939 9.71873L2.86332 4.45538C2.69112 4.29067 2.474 4.19334 2.23442 4.19334C1.74776 4.19334 1.37341 4.57517 1.37341 5.06183C1.37341 5.30141 1.45577 5.51104 1.62048 5.66827L7.33305 11.5081C7.52771 11.7103 7.74483 11.8001 7.99939 11.8076Z" fill="#F9F9F9"/>
</svg>
