<svg width="16" height="16" viewBox="0 0 16 16" fill="none" xmlns="http://www.w3.org/2000/svg">
<path d="M4 7.95932C4 8.21388 4.09733 8.431 4.29948 8.62566L10.1393 14.3382C10.2965 14.5029 10.5062 14.5853 10.7458 14.5853C11.2324 14.5853 11.6143 14.2109 11.6143 13.7168C11.6143 13.4772 11.5169 13.2601 11.3522 13.0954L6.08887 7.95932L11.3522 2.82325C11.5169 2.65105 11.6143 2.43393 11.6143 2.19435C11.6143 1.70769 11.2324 1.33334 10.7458 1.33334C10.5062 1.33334 10.2965 1.4157 10.1393 1.58041L4.29948 7.29298C4.09733 7.48764 4.00749 7.70476 4 7.95932Z" fill="#979797"/>
</svg>
