<svg width="16" height="16" viewBox="0 0 16 16" fill="none" xmlns="http://www.w3.org/2000/svg">
<path d="M11.6143 7.95932C11.6143 8.21388 11.5169 8.431 11.3148 8.62566L5.47493 14.3382C5.31771 14.5029 5.10807 14.5853 4.86849 14.5853C4.38184 14.5853 4 14.2109 4 13.7168C4 13.4772 4.09733 13.2601 4.26204 13.0954L9.52539 7.95932L4.26204 2.82325C4.09733 2.65105 4 2.43393 4 2.19435C4 1.70769 4.38184 1.33334 4.86849 1.33334C5.10807 1.33334 5.31771 1.4157 5.47493 1.58041L11.3148 7.29298C11.5169 7.48764 11.6068 7.70476 11.6143 7.95932Z" fill="#979797"/>
</svg>
