<svg width="16" height="14" viewBox="0 0 16 14" fill="none" xmlns="http://www.w3.org/2000/svg">
<path fill-rule="evenodd" clip-rule="evenodd" d="M0.341941 0.34188C0.560951 0.122935 0.857953 -6.10352e-05 1.16763 -6.10352e-05C1.47731 -6.10352e-05 1.77432 0.122935 1.99333 0.34188L7.83274 6.1813C8.05169 6.40031 8.17468 6.69731 8.17468 7.00699C8.17468 7.31667 8.05169 7.61367 7.83274 7.83268L1.99333 13.6721C1.77306 13.8848 1.47805 14.0026 1.17184 13.9999C0.865621 13.9972 0.572702 13.8744 0.356167 13.6579C0.139632 13.4413 0.0168065 13.1484 0.0141456 12.8422C0.0114846 12.536 0.129201 12.241 0.341941 12.0207L5.35566 7.00699L0.341941 1.99327C0.122996 1.77426 0 1.47725 0 1.16757C0 0.857892 0.122996 0.56089 0.341941 0.34188ZM7.34924 0.34188C7.56825 0.122935 7.86525 -6.10352e-05 8.17493 -6.10352e-05C8.48461 -6.10352e-05 8.78162 0.122935 9.00063 0.34188L14.84 6.1813C15.059 6.40031 15.182 6.69731 15.182 7.00699C15.182 7.31667 15.059 7.61367 14.84 7.83268L9.00063 13.6721C8.78036 13.8848 8.48535 14.0026 8.17914 13.9999C7.87292 13.9972 7.58 13.8744 7.36347 13.6579C7.14693 13.4413 7.02411 13.1484 7.02145 12.8422C7.01878 12.536 7.1365 12.241 7.34924 12.0207L12.363 7.00699L7.34924 1.99327C7.1303 1.77426 7.0073 1.47725 7.0073 1.16757C7.0073 0.857892 7.1303 0.56089 7.34924 0.34188Z" fill="#FFB715"/>
</svg>
