<svg width="40" height="40" viewBox="0 0 40 40" fill="none" xmlns="http://www.w3.org/2000/svg">
<path d="M5.8335 20.0002C5.8335 20.8416 6.53754 21.5284 7.36178 21.5284H18.4719V32.6385C18.4719 33.4628 19.1587 34.1668 20.0002 34.1668C20.8416 34.1668 21.5456 33.4628 21.5456 32.6385V21.5284H32.6385C33.4628 21.5284 34.1668 20.8416 34.1668 20.0002C34.1668 19.1587 33.4628 18.4547 32.6385 18.4547H21.5456V7.36178C21.5456 6.53754 20.8416 5.8335 20.0002 5.8335C19.1587 5.8335 18.4719 6.53754 18.4719 7.36178V18.4547H7.36178C6.53754 18.4547 5.8335 19.1587 5.8335 20.0002Z" fill="white"/>
</svg>
