<svg width="24" height="24" viewBox="0 0 24 24" fill="none" xmlns="http://www.w3.org/2000/svg">
<path d="M3.09325 19.5C2.50836 19.5 2.01328 19.2981 1.60802 18.8942C1.20275 18.4904 1.00012 17.997 1.00012 17.4142V6.58582C1.00012 6.00297 1.20275 5.50962 1.60802 5.10577C2.01328 4.70192 2.50836 4.5 3.09325 4.5H20.907C21.4919 4.5 21.987 4.70192 22.3922 5.10577C22.7975 5.50962 23.0001 6.00297 23.0001 6.58582V17.4142C23.0001 17.997 22.7975 18.4904 22.3922 18.8942C21.987 19.2981 21.4919 19.5 20.907 19.5H3.09325ZM15.652 15.75C15.652 16.1299 15.9599 16.4379 16.3398 16.4379H19.9273V12.8678C19.9273 12.4866 19.6182 12.1775 19.237 12.1775C18.8558 12.1775 18.5467 12.4866 18.5467 12.8678V15.0621H16.3398C15.9599 15.0621 15.652 15.3701 15.652 15.75ZM12.0001 15.1065C12.8611 15.1065 13.5959 14.8032 14.2046 14.1967C14.8132 13.5902 15.1175 12.858 15.1175 12C15.1175 11.142 14.8132 10.4098 14.2046 9.80327C13.5959 9.19677 12.8611 8.89352 12.0001 8.89352C11.1391 8.89352 10.4043 9.19677 9.79569 9.80327C9.18706 10.4098 8.88274 11.142 8.88274 12C8.88274 12.858 9.18706 13.5902 9.79569 14.1967C10.4043 14.8032 11.1391 15.1065 12.0001 15.1065ZM4.07298 11.1322C4.07298 11.5134 4.38203 11.8225 4.76326 11.8225C5.14449 11.8225 5.45354 11.5134 5.45354 11.1322V8.93785H7.66042C8.04032 8.93785 8.34829 8.62988 8.34829 8.24999C8.34829 7.87009 8.04032 7.56212 7.66042 7.56212H4.07298V11.1322Z" fill="#3C3C3C"/>
</svg>
