<svg width="24" height="24" viewBox="0 0 24 24" fill="none" xmlns="http://www.w3.org/2000/svg">
<path d="M11.8934 14.2334C11.6372 14.2334 11.4189 14.1432 11.2384 13.9628C11.058 13.7824 10.9678 13.5641 10.9678 13.3079C10.9678 13.0517 11.058 12.8334 11.2384 12.6529C11.4189 12.4725 11.6372 12.3823 11.8934 12.3823C12.1496 12.3823 12.3679 12.4725 12.5483 12.6529C12.7287 12.8334 12.8189 13.0517 12.8189 13.3079C12.8189 13.5641 12.7287 13.7824 12.5483 13.9628C12.3679 14.1432 12.1496 14.2334 11.8934 14.2334ZM7.70824 14.2334C7.45204 14.2334 7.23373 14.1432 7.05332 13.9628C6.8729 13.7824 6.7827 13.5641 6.7827 13.3079C6.7827 13.0517 6.8729 12.8334 7.05332 12.6529C7.23373 12.4725 7.45204 12.3823 7.70824 12.3823C7.96444 12.3823 8.18274 12.4725 8.36316 12.6529C8.54357 12.8334 8.63378 13.0517 8.63378 13.3079C8.63378 13.5641 8.54357 13.7824 8.36316 13.9628C8.18274 14.1432 7.96444 14.2334 7.70824 14.2334ZM16.0785 14.2334C15.8223 14.2334 15.604 14.1432 15.4236 13.9628C15.2432 13.7824 15.1529 13.5641 15.1529 13.3079C15.1529 13.0517 15.2432 12.8334 15.4236 12.6529C15.604 12.4725 15.8223 12.3823 16.0785 12.3823C16.3347 12.3823 16.553 12.4725 16.7334 12.6529C16.9138 12.8334 17.004 13.0517 17.004 13.3079C17.004 13.5641 16.9138 13.7824 16.7334 13.9628C16.553 14.1432 16.3347 14.2334 16.0785 14.2334ZM11.8934 18.338C11.6372 18.338 11.4189 18.2478 11.2384 18.0674C11.058 17.887 10.9678 17.6687 10.9678 17.4125C10.9678 17.1563 11.058 16.938 11.2384 16.7576C11.4189 16.5772 11.6372 16.4869 11.8934 16.4869C12.1496 16.4869 12.3679 16.5772 12.5483 16.7576C12.7287 16.938 12.8189 17.1563 12.8189 17.4125C12.8189 17.6687 12.7287 17.887 12.5483 18.0674C12.3679 18.2478 12.1496 18.338 11.8934 18.338ZM7.70824 18.338C7.45204 18.338 7.23373 18.2478 7.05332 18.0674C6.8729 17.887 6.7827 17.6687 6.7827 17.4125C6.7827 17.1563 6.8729 16.938 7.05332 16.7576C7.23373 16.5772 7.45204 16.4869 7.70824 16.4869C7.96444 16.4869 8.18274 16.5772 8.36316 16.7576C8.54357 16.938 8.63378 17.1563 8.63378 17.4125C8.63378 17.6687 8.54357 17.887 8.36316 18.0674C8.18274 18.2478 7.96444 18.338 7.70824 18.338ZM16.0785 18.338C15.8223 18.338 15.604 18.2478 15.4236 18.0674C15.2432 17.887 15.1529 17.6687 15.1529 17.4125C15.1529 17.1563 15.2432 16.938 15.4236 16.7576C15.604 16.5772 15.8223 16.4869 16.0785 16.4869C16.3347 16.4869 16.553 16.5772 16.7334 16.7576C16.9138 16.938 17.004 17.1563 17.004 17.4125C17.004 17.6687 16.9138 17.887 16.7334 18.0674C16.553 18.2478 16.3347 18.338 16.0785 18.338ZM4.89136 22C4.36285 22 3.9155 21.8169 3.5493 21.4507C3.1831 21.0845 3 20.6371 3 20.1086V6.10464C3 5.57613 3.1831 5.12877 3.5493 4.76257C3.9155 4.39638 4.36285 4.21328 4.89136 4.21328H6.34007V2.80481C6.34007 2.36033 6.7004 2 7.14488 2C7.58937 2 7.94969 2.36033 7.94969 2.80481V4.21328H15.8773V2.7847C15.8773 2.35132 16.2286 2 16.662 2C17.0953 2 17.4467 2.35132 17.4467 2.7847V4.21328H18.8954C19.4239 4.21328 19.8712 4.39638 20.2374 4.76257C20.6036 5.12877 20.7867 5.57613 20.7867 6.10464V20.1086C20.7867 20.6371 20.6036 21.0845 20.2374 21.4507C19.8712 21.8169 19.4239 22 18.8954 22H4.89136ZM4.89136 20.4306H18.8954C18.9759 20.4306 19.0496 20.3971 19.1167 20.33C19.1838 20.2629 19.2173 20.1891 19.2173 20.1086V10.2898H4.5694V20.1086C4.5694 20.1891 4.60293 20.2629 4.66999 20.33C4.73708 20.3971 4.81087 20.4306 4.89136 20.4306Z" fill="#979797"/>
</svg>
