<svg width="20" height="20" viewBox="0 0 20 20" fill="none" xmlns="http://www.w3.org/2000/svg">
<path d="M4.99134 15.0087C5.28882 15.3062 5.78058 15.3001 6.072 15.0087L10 11.0807L13.928 15.0087C14.2194 15.3001 14.7112 15.3062 15.0087 15.0087C15.3062 14.7112 15.3062 14.2134 15.0148 13.9219L11.0867 9.99393L15.0087 6.07199C15.3001 5.78057 15.3062 5.28881 15.0087 4.99133C14.7112 4.69384 14.2134 4.69384 13.922 4.98526L10 8.9072L6.07807 4.98526C5.78666 4.69384 5.28882 4.69384 4.99134 4.99133C4.69385 5.28881 4.69993 5.78057 4.99134 6.07199L8.91328 9.99393L4.98527 13.9219C4.69385 14.2134 4.69385 14.7112 4.99134 15.0087Z" fill="black"/>
</svg>
