<svg width="24" height="24" viewBox="0 0 24 24" fill="none" xmlns="http://www.w3.org/2000/svg">
<path d="M14.8917 10C15.906 10 16.7292 10.784 16.7292 11.75V16.499C16.7292 17.6927 16.2313 18.8376 15.345 19.6817C14.4587 20.5258 13.2566 21 12.0031 21C10.7497 21 9.54763 20.5258 8.66133 19.6817C7.77502 18.8376 7.2771 17.6927 7.2771 16.499V11.75C7.2771 10.784 8.09925 10 9.1146 10H14.8917ZM6.88755 10C6.50936 10.4335 6.28188 10.9681 6.23655 11.53L6.22605 11.75V16.499C6.22605 17.346 6.42765 18.148 6.78675 18.864C6.16439 19.0226 5.51208 19.0427 4.88026 18.9228C4.24843 18.8029 3.65402 18.5463 3.14298 18.1727C2.63195 17.7991 2.21798 17.3185 1.93309 16.7682C1.64819 16.2179 1.50001 15.6126 1.5 14.999V11.75C1.50002 11.3108 1.67343 10.8877 1.98581 10.5646C2.2982 10.2415 2.72671 10.0421 3.1863 10.006L3.3375 10H6.88755ZM17.1187 10H20.6625C21.6768 10 22.5 10.784 22.5 11.75V15C22.5001 15.6132 22.3523 16.2182 22.0678 16.7682C21.7833 17.3183 21.3699 17.7987 20.8594 18.1724C20.349 18.546 19.7551 18.8029 19.1238 18.9232C18.4925 19.0435 17.8406 19.0239 17.2185 18.866C17.5335 18.238 17.7267 17.546 17.7698 16.814L17.7792 16.499V11.75C17.7792 11.085 17.5324 10.475 17.1187 10ZM12 3C12.8354 3 13.6366 3.31607 14.2274 3.87868C14.8181 4.44129 15.15 5.20435 15.15 6C15.15 6.79565 14.8181 7.55871 14.2274 8.12132C13.6366 8.68393 12.8354 9 12 9C11.1646 9 10.3634 8.68393 9.77261 8.12132C9.18187 7.55871 8.85 6.79565 8.85 6C8.85 5.20435 9.18187 4.44129 9.77261 3.87868C10.3634 3.31607 11.1646 3 12 3ZM18.825 4C19.5212 4 20.1889 4.26339 20.6812 4.73223C21.1734 5.20107 21.45 5.83696 21.45 6.5C21.45 7.16304 21.1734 7.79893 20.6812 8.26777C20.1889 8.73661 19.5212 9 18.825 9C18.1288 9 17.4611 8.73661 16.9688 8.26777C16.4766 7.79893 16.2 7.16304 16.2 6.5C16.2 5.83696 16.4766 5.20107 16.9688 4.73223C17.4611 4.26339 18.1288 4 18.825 4ZM5.175 4C5.87119 4 6.53887 4.26339 7.03116 4.73223C7.52344 5.20107 7.8 5.83696 7.8 6.5C7.8 7.16304 7.52344 7.79893 7.03116 8.26777C6.53887 8.73661 5.87119 9 5.175 9C4.47881 9 3.81113 8.73661 3.31884 8.26777C2.82656 7.79893 2.55 7.16304 2.55 6.5C2.55 5.83696 2.82656 5.20107 3.31884 4.73223C3.81113 4.26339 4.47881 4 5.175 4Z" fill="#979797"/>
</svg>
