<svg width="20" height="20" viewBox="0 0 20 20" fill="none" xmlns="http://www.w3.org/2000/svg">
<path d="M12.455 13.3333C12.6976 13.5758 13.0907 13.5758 13.3332 13.3333V13.3333C13.5757 13.0908 13.5757 12.6976 13.3332 12.4551L10.6249 9.74656V6.45827C10.6249 6.1131 10.3451 5.83329 9.99989 5.83329V5.83329C9.65472 5.83329 9.37491 6.1131 9.37491 6.45827V10.2532L12.455 13.3333ZM10.0013 17.9166C8.90634 17.9166 7.87715 17.7088 6.91371 17.2933C5.95025 16.8777 5.11218 16.3138 4.3995 15.6014C3.68681 14.889 3.12259 14.0513 2.70686 13.0883C2.29112 12.1253 2.08325 11.0963 2.08325 10.0014C2.08325 8.90641 2.29103 7.87722 2.70658 6.91377C3.12214 5.95031 3.6861 5.11224 4.39846 4.39956C5.11083 3.68687 5.94853 3.12265 6.91156 2.70692C7.87457 2.29118 8.90355 2.08331 9.99849 2.08331C11.0934 2.08331 12.1226 2.29109 13.0861 2.70665C14.0495 3.1222 14.8876 3.68616 15.6003 4.39852C16.313 5.1109 16.8772 5.9486 17.2929 6.91163C17.7087 7.87464 17.9165 8.90362 17.9165 9.99856C17.9165 11.0935 17.7087 12.1227 17.2932 13.0861C16.8776 14.0496 16.3137 14.8877 15.6013 15.6004C14.8889 16.313 14.0512 16.8773 13.0882 17.293C12.1252 17.7087 11.0962 17.9166 10.0013 17.9166Z" fill="#979797"/>
</svg>
