<svg width="12" height="12" viewBox="0 0 12 12" fill="none" xmlns="http://www.w3.org/2000/svg">
<path d="M4.46347 4.31608L5.63278 1.97545C5.66682 1.90771 5.71917 1.85074 5.78396 1.81091C5.84875 1.77109 5.92342 1.75 5.99959 1.75C6.07577 1.75 6.15044 1.77109 6.21523 1.81091C6.28002 1.85074 6.33237 1.90771 6.36641 1.97545L7.53572 4.31608L10.1498 4.69366C10.2252 4.70405 10.2961 4.73531 10.3545 4.78386C10.4129 4.8324 10.4564 4.89629 10.48 4.96822C10.5036 5.04016 10.5064 5.11724 10.488 5.19067C10.4697 5.2641 10.4309 5.33092 10.3762 5.38351L8.48494 7.2043L8.93142 9.77667C8.98858 10.1068 8.63752 10.3582 8.33731 10.2026L5.99959 8.98751L3.66143 10.2026C3.36167 10.3587 3.01061 10.1068 3.06777 9.77622L3.51425 7.20385L1.62301 5.38306C1.56854 5.33044 1.53002 5.26368 1.51182 5.19038C1.49363 5.11708 1.49648 5.04018 1.52006 4.96841C1.54365 4.89664 1.58701 4.83289 1.64523 4.7844C1.70345 4.73591 1.77419 4.70463 1.8494 4.69411L4.46347 4.31608Z" fill="#FFB715" stroke="#FFB715" stroke-width="1.5" stroke-linecap="round" stroke-linejoin="round"/>
</svg>
