<svg width="20" height="20" viewBox="0 0 20 20" fill="none" xmlns="http://www.w3.org/2000/svg">
<path d="M12.4097 8.33333C13.255 8.33333 13.941 8.98667 13.941 9.79167V13.7492C13.941 14.7439 13.5261 15.698 12.7875 16.4014C12.0489 17.1048 11.0471 17.5 10.0026 17.5C8.9581 17.5 7.95636 17.1048 7.21777 16.4014C6.47918 15.698 6.06425 14.7439 6.06425 13.7492V9.79167C6.06425 8.98667 6.74937 8.33333 7.5955 8.33333H12.4097ZM5.73963 8.33333C5.42447 8.69454 5.2349 9.14007 5.19713 9.60833L5.18837 9.79167V13.7492C5.18837 14.455 5.35637 15.1233 5.65562 15.72C5.137 15.8521 4.5934 15.8689 4.06688 15.769C3.54036 15.6691 3.04502 15.4552 2.61915 15.1439C2.19329 14.8326 1.84832 14.4321 1.61091 13.9735C1.3735 13.5149 1.25001 13.0105 1.25 12.4992V9.79167C1.25001 9.42567 1.39452 9.07307 1.65484 8.80384C1.91517 8.53461 2.27226 8.36845 2.65525 8.33833L2.78125 8.33333H5.73963ZM14.2656 8.33333H17.2188C18.064 8.33333 18.75 8.98667 18.75 9.79167V12.5C18.7501 13.011 18.6269 13.5151 18.3898 13.9735C18.1528 14.4319 17.8083 14.8323 17.3829 15.1436C16.9575 15.455 16.4626 15.6691 15.9365 15.7693C15.4104 15.8695 14.8672 15.8532 14.3487 15.7217C14.6112 15.1983 14.7723 14.6217 14.8081 14.0117L14.816 13.7492V9.79167C14.816 9.2375 14.6104 8.72917 14.2656 8.33333ZM10 2.5C10.6962 2.5 11.3639 2.76339 11.8562 3.23223C12.3484 3.70107 12.625 4.33696 12.625 5C12.625 5.66304 12.3484 6.29893 11.8562 6.76777C11.3639 7.23661 10.6962 7.5 10 7.5C9.30381 7.5 8.63613 7.23661 8.14384 6.76777C7.65156 6.29893 7.375 5.66304 7.375 5C7.375 4.33696 7.65156 3.70107 8.14384 3.23223C8.63613 2.76339 9.30381 2.5 10 2.5ZM15.6875 3.33333C16.2677 3.33333 16.8241 3.55283 17.2343 3.94353C17.6445 4.33423 17.875 4.86413 17.875 5.41667C17.875 5.9692 17.6445 6.4991 17.2343 6.88981C16.8241 7.28051 16.2677 7.5 15.6875 7.5C15.1073 7.5 14.5509 7.28051 14.1407 6.88981C13.7305 6.4991 13.5 5.9692 13.5 5.41667C13.5 4.86413 13.7305 4.33423 14.1407 3.94353C14.5509 3.55283 15.1073 3.33333 15.6875 3.33333ZM4.3125 3.33333C4.89266 3.33333 5.44906 3.55283 5.8593 3.94353C6.26953 4.33423 6.5 4.86413 6.5 5.41667C6.5 5.9692 6.26953 6.4991 5.8593 6.88981C5.44906 7.28051 4.89266 7.5 4.3125 7.5C3.73234 7.5 3.17594 7.28051 2.7657 6.88981C2.35547 6.4991 2.125 5.9692 2.125 5.41667C2.125 4.86413 2.35547 4.33423 2.7657 3.94353C3.17594 3.55283 3.73234 3.33333 4.3125 3.33333Z" fill="#979797"/>
</svg>
