<svg width="20" height="20" viewBox="0 0 20 20" fill="none" xmlns="http://www.w3.org/2000/svg">
<path d="M8.50172 13.4776C8.64181 13.6177 8.86895 13.6177 9.00904 13.4776L14.1906 8.29605C14.4459 8.04078 14.4459 7.62691 14.1906 7.37164V7.37164C13.9353 7.11637 13.5215 7.11637 13.2662 7.37164L8.75538 11.8825L6.71758 9.84465C6.46231 9.58938 6.04844 9.58938 5.79317 9.84465V9.84465C5.5379 10.0999 5.5379 10.5138 5.79317 10.7691L8.50172 13.4776ZM10.0018 18.3332C8.84921 18.3332 7.76585 18.1145 6.75169 17.677C5.73752 17.2396 4.85534 16.646 4.10515 15.8961C3.35495 15.1462 2.76104 14.2644 2.32342 13.2507C1.8858 12.237 1.66699 11.1539 1.66699 10.0013C1.66699 8.84873 1.88571 7.76536 2.32313 6.75121C2.76056 5.73704 3.3542 4.85486 4.10406 4.10467C4.85393 3.35446 5.73572 2.76055 6.74943 2.32293C7.76313 1.88531 8.84627 1.6665 9.99885 1.6665C11.1514 1.6665 12.2348 1.88522 13.2489 2.32265C14.2631 2.76008 15.1453 3.35372 15.8955 4.10357C16.6457 4.85344 17.2396 5.73524 17.6772 6.74895C18.1148 7.76265 18.3336 8.84579 18.3336 9.99837C18.3336 11.1509 18.1149 12.2343 17.6775 13.2485C17.2401 14.2626 16.6464 15.1448 15.8966 15.895C15.1467 16.6452 14.2649 17.2391 13.2512 17.6767C12.2375 18.1144 11.1544 18.3332 10.0018 18.3332Z" fill="#979797"/>
</svg>
