<svg width="20" height="20" viewBox="0 0 20 20" fill="none" xmlns="http://www.w3.org/2000/svg">
<path d="M6.31931 17.0174H13.5055V14.3858C13.5055 13.3872 13.1564 12.533 12.458 11.8234C11.7596 11.1138 10.9111 10.7589 9.91243 10.7589C8.91377 10.7589 8.06526 11.1138 7.36688 11.8234C6.6685 12.533 6.31931 13.3872 6.31931 14.3858V17.0174ZM3.3335 18.3332V17.0174H5.00354V14.3858C5.00354 13.3984 5.27373 12.4996 5.81411 11.6893C6.35449 10.879 7.0706 10.3158 7.96243 9.99984C7.0706 9.67821 6.35449 9.11367 5.81411 8.30619C5.27373 7.49872 5.00354 6.60128 5.00354 5.61386V2.98228H3.3335V1.6665H16.4914V2.98228H14.8213V5.61386C14.8213 6.60128 14.5511 7.49872 14.0107 8.30619C13.4704 9.11367 12.7543 9.67821 11.8624 9.99984C12.7543 10.3158 13.4704 10.879 14.0107 11.6893C14.5511 12.4996 14.8213 13.3984 14.8213 14.3858V17.0174H16.4914V18.3332H3.3335Z" fill="#979797"/>
</svg>
