<svg width="20" height="20" viewBox="0 0 20 20" fill="none" xmlns="http://www.w3.org/2000/svg">
<path d="M17.5 2.5L12.1782 17.2373C12.1423 17.3157 12.0846 17.3821 12.012 17.4287C11.9395 17.4752 11.8551 17.5 11.7688 17.5C11.6826 17.5 11.5982 17.4752 11.5256 17.4287C11.4531 17.3821 11.3954 17.3157 11.3595 17.2373L8.49388 11.5061L2.76271 8.64054C2.68432 8.60462 2.6179 8.54694 2.57133 8.47438C2.52476 8.40181 2.5 8.31739 2.5 8.23117C2.5 8.14494 2.52476 8.06053 2.57133 7.98796C2.6179 7.91539 2.68432 7.85772 2.76271 7.8218L17.5 2.5Z" fill="#FFB715" stroke="#FFB715" stroke-width="1.5" stroke-linecap="round" stroke-linejoin="round"/>
</svg>
