<svg width="20" height="20" viewBox="0 0 20 20" fill="none" xmlns="http://www.w3.org/2000/svg">
<path d="M9.99983 14.1496C10.2006 14.1496 10.3688 14.0817 10.5046 13.9459C10.6404 13.8101 10.7083 13.6419 10.7083 13.4411C10.7083 13.2404 10.6404 13.0721 10.5046 12.9363C10.3688 12.8005 10.2006 12.7327 9.99983 12.7327C9.79908 12.7327 9.63081 12.8005 9.49502 12.9363C9.35923 13.0721 9.29134 13.2404 9.29134 13.4411C9.29134 13.6419 9.35923 13.8101 9.49502 13.9459C9.63081 14.0817 9.79908 14.1496 9.99983 14.1496ZM9.34195 10.2866C9.34195 10.65 9.63649 10.9445 9.99983 10.9445V10.9445C10.3632 10.9445 10.6577 10.65 10.6577 10.2866V6.33921C10.6577 5.97588 10.3632 5.68134 9.99983 5.68134V5.68134C9.63649 5.68134 9.34195 5.97588 9.34195 6.33921V10.2866ZM10.0013 18.3332C8.84872 18.3332 7.76536 18.1145 6.7512 17.677C5.73704 17.2396 4.85486 16.646 4.10467 15.8961C3.35446 15.1462 2.76055 14.2644 2.32293 13.2507C1.88531 12.237 1.6665 11.1539 1.6665 10.0013C1.6665 8.84873 1.88522 7.76536 2.32265 6.75121C2.76007 5.73704 3.35371 4.85486 4.10357 4.10467C4.85344 3.35446 5.73523 2.76055 6.74895 2.32293C7.76265 1.88531 8.84578 1.6665 9.99836 1.6665C11.1509 1.6665 12.2343 1.88522 13.2485 2.32265C14.2626 2.76007 15.1448 3.35372 15.895 4.10357C16.6452 4.85344 17.2391 5.73524 17.6767 6.74895C18.1143 7.76265 18.3332 8.84579 18.3332 9.99837C18.3332 11.1509 18.1144 12.2343 17.677 13.2485C17.2396 14.2626 16.6459 15.1448 15.8961 15.895C15.1462 16.6452 14.2644 17.2391 13.2507 17.6767C12.237 18.1144 11.1539 18.3332 10.0013 18.3332Z" fill="#FFB715"/>
</svg>
