<svg width="20" height="20" viewBox="0 0 20 20" fill="none" xmlns="http://www.w3.org/2000/svg">
<path d="M6.17288 1.6665H11.6254V2.47181H15.7148V3.83734H14.806V7.72565C14.6126 7.67314 14.3882 7.63054 14.1327 7.59786C13.8772 7.56518 13.6473 7.54884 13.4429 7.54884C13.1179 7.54884 12.7585 7.58274 12.3649 7.65055C11.9712 7.71834 11.6257 7.80874 11.3283 7.92174V5.65807H9.96521V8.59926C9.53878 8.88287 9.12983 9.25256 8.73837 9.70834C8.34689 10.1641 8.04513 10.6219 7.83309 11.0818V5.65807H6.47V13.8514H7.15154C7.15154 14.3667 7.23426 14.9183 7.3997 15.5062C7.56514 16.0941 7.77951 16.6046 8.04281 17.0376H4.63501C4.17597 17.0376 3.78742 16.8783 3.46935 16.5597C3.15129 16.2411 2.99225 15.8518 2.99225 15.392V3.83734H2.0835V2.47181H6.17288V1.6665ZM13.4449 9.36957C14.6832 9.36957 15.7381 9.80674 16.6096 10.6811C17.4811 11.5554 17.9168 12.6128 17.9168 13.8533C17.9168 15.0939 17.4804 16.1506 16.6076 17.0236C15.7348 17.8967 14.6793 18.3332 13.441 18.3332C12.2026 18.3332 11.1477 17.896 10.2763 17.0217C9.4048 16.1473 8.96906 15.0899 8.96906 13.8494C8.96906 12.6089 9.40546 11.5521 10.2783 10.6791C11.151 9.80608 12.2066 9.36957 13.4449 9.36957ZM13.041 11.1728V14.0159L14.9424 15.9207L15.5086 15.3535L13.8449 13.6902V11.1728H13.041Z" fill="#FFB715"/>
</svg>
