<svg width="20" height="20" viewBox="0 0 20 20" fill="none" xmlns="http://www.w3.org/2000/svg">
<path d="M7.43911 7.19331L9.38796 3.29225C9.44469 3.17935 9.53194 3.0844 9.63992 3.01803C9.7479 2.95166 9.87236 2.9165 9.99932 2.9165C10.1263 2.9165 10.2507 2.95166 10.3587 3.01803C10.4667 3.0844 10.5539 3.17935 10.6107 3.29225L12.5595 7.19331L16.9163 7.82261C17.042 7.83993 17.1602 7.89202 17.2575 7.97293C17.3548 8.05385 17.4273 8.16032 17.4666 8.28021C17.506 8.4001 17.5106 8.52857 17.48 8.65095C17.4494 8.77334 17.3848 8.8847 17.2936 8.97235L14.1416 12.007L14.8857 16.2943C14.981 16.8446 14.3958 17.2636 13.8955 17.0041L9.99932 14.979L6.10237 17.0041C5.60278 17.2643 5.01768 16.8446 5.11295 16.2935L5.85708 12.0063L2.70502 8.9716C2.61424 8.8839 2.55004 8.77264 2.51971 8.65047C2.48938 8.52831 2.49413 8.40014 2.53344 8.28052C2.57274 8.16091 2.64502 8.05466 2.74205 7.97384C2.83908 7.89303 2.95698 7.84089 3.08233 7.82335L7.43911 7.19331Z" fill="#979797" stroke="#979797" stroke-width="1.5" stroke-linecap="round" stroke-linejoin="round"/>
</svg>
