<svg width="24" height="24" viewBox="0 0 24 24" fill="none" xmlns="http://www.w3.org/2000/svg">
<rect width="24" height="24" rx="12" fill="#FF6B42"/>
<path d="M12.1333 5.99991C10.8603 5.99991 9.6394 6.50562 8.73923 7.4058C7.83905 8.30597 7.33334 9.52687 7.33334 10.7999C7.33334 11.9351 7.57454 12.6779 8.23334 13.4999L12.1333 17.9999L16.0333 13.4999C16.6921 12.6779 16.9333 11.9351 16.9333 10.7999C16.9333 9.52687 16.4276 8.30597 15.5275 7.4058C14.6273 6.50562 13.4064 5.99991 12.1333 5.99991Z" fill="#F9F9F9" stroke="#F9F9F9" stroke-width="1.5" stroke-linecap="round" stroke-linejoin="round"/>
<path d="M12.1333 12.5999C13.1275 12.5999 13.9333 11.794 13.9333 10.7999C13.9333 9.8058 13.1275 8.99991 12.1333 8.99991C11.1392 8.99991 10.3333 9.8058 10.3333 10.7999C10.3333 11.794 11.1392 12.5999 12.1333 12.5999Z" fill="#FF6B42" stroke="#FF6B42" stroke-width="1.5" stroke-linecap="round" stroke-linejoin="round"/>
</svg>
