<svg width="24" height="24" viewBox="0 0 24 24" fill="none" xmlns="http://www.w3.org/2000/svg">
<rect width="24" height="24" rx="12" fill="#429DFF"/>
<path fill-rule="evenodd" clip-rule="evenodd" d="M14.5093 6.33334C14.8807 6.33336 15.2447 6.43677 15.5607 6.63199C15.8766 6.82721 16.1319 7.10654 16.298 7.43868L17.222 9.28601C17.3847 9.21934 17.5447 9.14734 17.702 9.07001C17.8603 8.99098 18.0434 8.97804 18.2112 9.03405C18.379 9.09006 18.5177 9.21043 18.5967 9.36868C18.6757 9.52692 18.6887 9.71008 18.6326 9.87787C18.5766 10.0456 18.4563 10.1843 18.298 10.2633C18.1378 10.3347 17.9767 10.404 17.8147 10.4713L18.4554 11.7533C18.5944 12.0313 18.6668 12.3379 18.6667 12.6487V14.3333C18.6671 14.6148 18.6079 14.8931 18.493 15.1501C18.3781 15.407 18.2101 15.6367 18 15.824V16.6667C18 16.9319 17.8947 17.1862 17.7071 17.3738C17.5196 17.5613 17.2652 17.6667 17 17.6667C16.7348 17.6667 16.4804 17.5613 16.2929 17.3738C16.1054 17.1862 16 16.9319 16 16.6667V16.3333H8.00001V16.6667C8.00001 16.9319 7.89465 17.1862 7.70711 17.3738C7.51958 17.5613 7.26522 17.6667 7 17.6667C6.73479 17.6667 6.48043 17.5613 6.2929 17.3738C6.10536 17.1862 6 16.9319 6 16.6667V15.824C5.59067 15.4573 5.33334 14.9253 5.33334 14.3333V12.648C5.33346 12.3376 5.40581 12.0316 5.54467 11.754L6.18 10.482C6.01934 10.414 5.86 10.342 5.70334 10.264C5.54589 10.1839 5.42621 10.0452 5.37009 9.87774C5.31397 9.71026 5.32591 9.52744 5.40334 9.36868C5.44244 9.2903 5.49661 9.22039 5.56275 9.16295C5.62888 9.10552 5.70569 9.06168 5.78878 9.03394C5.87186 9.00621 5.9596 8.99511 6.04698 9.0013C6.13436 9.00749 6.21966 9.03084 6.298 9.07001C6.45534 9.14801 6.616 9.21934 6.778 9.28601L7.70201 7.43934C7.86804 7.10708 8.12332 6.82762 8.43924 6.63227C8.75516 6.43693 9.11924 6.33342 9.49067 6.33334H14.5093ZM9.00001 12.3333C8.73479 12.3333 8.48044 12.4387 8.2929 12.6262C8.10536 12.8138 8.00001 13.0681 8.00001 13.3333C8.00001 13.5986 8.10536 13.8529 8.2929 14.0405C8.48044 14.228 8.73479 14.3333 9.00001 14.3333C9.26522 14.3333 9.51958 14.228 9.70711 14.0405C9.89465 13.8529 10 13.5986 10 13.3333C10 13.0681 9.89465 12.8138 9.70711 12.6262C9.51958 12.4387 9.26522 12.3333 9.00001 12.3333ZM15 12.3333C14.7348 12.3333 14.4804 12.4387 14.2929 12.6262C14.1054 12.8138 14 13.0681 14 13.3333C14 13.5986 14.1054 13.8529 14.2929 14.0405C14.4804 14.228 14.7348 14.3333 15 14.3333C15.2652 14.3333 15.5196 14.228 15.7071 14.0405C15.8947 13.8529 16 13.5986 16 13.3333C16 13.0681 15.8947 12.8138 15.7071 12.6262C15.5196 12.4387 15.2652 12.3333 15 12.3333ZM14.5093 7.66668H9.49067C9.38095 7.66666 9.27291 7.69373 9.17615 7.74548C9.07939 7.79723 8.99691 7.87207 8.93601 7.96334L8.89467 8.03534L8.04801 9.72734C9.08001 10.0367 10.4707 10.3333 12 10.3333C13.428 10.3333 14.734 10.0747 15.74 9.78868L15.9513 9.72734L15.1053 8.03534C15.0563 7.93722 14.9838 7.85272 14.8942 7.78934C14.8047 7.72596 14.7009 7.68566 14.592 7.67201L14.51 7.66668H14.5093Z" fill="#F9F9F9"/>
</svg>
