<svg width="24" height="24" viewBox="0 0 24 24" fill="none" xmlns="http://www.w3.org/2000/svg">
<path d="M12.3665 12.0405V3.9569C12.3665 3.68406 12.4578 3.45635 12.6404 3.27377C12.823 3.09118 13.0507 2.99988 13.3236 2.99988H20.043C20.3158 2.99988 20.5435 3.09118 20.7261 3.27377C20.9087 3.45635 21 3.68406 21 3.9569V8.47721C21 8.75007 20.9087 8.97779 20.7261 9.16037C20.5435 9.34295 20.3158 9.43423 20.043 9.43423H14.9728L12.3665 12.0405ZM19.878 20.9999C17.8826 20.9999 15.8779 20.536 13.8641 19.6081C11.8503 18.6803 9.99842 17.3714 8.30837 15.6813C6.62512 13.9913 5.31958 12.141 4.39175 10.1307C3.46392 8.12024 3 6.1173 3 4.12184C3 3.80419 3.10588 3.53779 3.31765 3.32263C3.52941 3.10746 3.79412 2.99988 4.11177 2.99988H7.56513C7.83255 2.99988 8.06842 3.0871 8.27272 3.26154C8.47702 3.43598 8.60699 3.65148 8.66263 3.90803L9.26942 7.02339C9.31151 7.31254 9.30268 7.56096 9.24295 7.76865C9.18323 7.97634 9.07599 8.15077 8.92122 8.29195L6.47576 10.6723C6.86943 11.3931 7.3191 12.0749 7.82476 12.7176C8.33042 13.3604 8.87781 13.9743 9.46694 14.5594C10.048 15.1404 10.6656 15.68 11.3199 16.1782C11.9742 16.6764 12.6808 17.14 13.4396 17.5689L15.8159 15.1723C15.9815 14.9999 16.182 14.8791 16.4176 14.8099C16.6531 14.7406 16.8978 14.7237 17.1516 14.759L20.0918 15.3576C20.3593 15.4282 20.5775 15.5646 20.7465 15.7669C20.9155 15.9691 21 16.1986 21 16.4551V19.8881C21 20.2058 20.8924 20.4705 20.6772 20.6822C20.4621 20.894 20.1957 20.9999 19.878 20.9999Z" fill="#FFB715"/>
</svg>
