<svg width="24" height="24" viewBox="0 0 24 24" fill="none" xmlns="http://www.w3.org/2000/svg">
<path d="M12.3665 12.0405V3.9569C12.3665 3.68575 12.4585 3.45847 12.6425 3.27504C12.8264 3.0916 13.0544 2.99988 13.3263 2.99988H20.0444C20.3163 2.99988 20.5435 3.0916 20.7261 3.27504C20.9087 3.45847 21 3.68575 21 3.9569V8.47721C21 8.74836 20.9083 8.97566 20.7248 9.1591C20.5414 9.34252 20.3141 9.43423 20.043 9.43423H14.9728L12.3665 12.0405ZM13.9548 7.84602H19.4118V4.58809H13.9548V7.84602ZM19.878 20.9999C17.8826 20.9999 15.8779 20.536 13.8641 19.6081C11.8503 18.6803 10.0001 17.3714 8.31348 15.6813C6.62682 13.9913 5.31958 12.141 4.39175 10.1307C3.46392 8.12024 3 6.1173 3 4.12184C3 3.80128 3.10588 3.53415 3.31765 3.32044C3.52941 3.10673 3.79412 2.99988 4.11177 2.99988H7.56513C7.83255 2.99988 8.06842 3.0871 8.27272 3.26154C8.47702 3.43598 8.60699 3.65148 8.66263 3.90803L9.26942 7.02339C9.31151 7.31254 9.30268 7.56096 9.24295 7.76865C9.18323 7.97634 9.07599 8.15077 8.92122 8.29195L6.47576 10.6723C6.86943 11.3931 7.3191 12.0749 7.82476 12.7176C8.33042 13.3604 8.87781 13.9743 9.46694 14.5594C10.048 15.1404 10.6656 15.68 11.3199 16.1782C11.9742 16.6764 12.6808 17.14 13.4396 17.5689L15.8159 15.1723C15.9815 14.9999 16.182 14.8791 16.4176 14.8099C16.6531 14.7406 16.8978 14.7237 17.1516 14.759L20.0918 15.3576C20.3593 15.4282 20.5775 15.5646 20.7465 15.7669C20.9155 15.9691 21 16.1986 21 16.4551V19.8881C21 20.2058 20.8931 20.4705 20.6794 20.6822C20.4657 20.894 20.1986 20.9999 19.878 20.9999ZM5.72441 9.16958L7.61402 7.36142C7.64796 7.33426 7.67002 7.29693 7.6802 7.24943C7.69038 7.2019 7.68869 7.15778 7.67512 7.11707L7.21492 4.75099C7.20135 4.69669 7.1776 4.65597 7.14366 4.62883C7.10973 4.60167 7.06561 4.58809 7.01131 4.58809H4.74704C4.70633 4.58809 4.67239 4.60167 4.64523 4.62883C4.61807 4.65597 4.60449 4.68991 4.60449 4.73064C4.65879 5.45417 4.77723 6.18924 4.95981 6.93585C5.1424 7.68247 5.39727 8.42704 5.72441 9.16958ZM14.9362 18.3203C15.638 18.6474 16.37 18.8975 17.1322 19.0706C17.8945 19.2437 18.6068 19.3465 19.2692 19.3791C19.31 19.3791 19.3439 19.3655 19.371 19.3384C19.3982 19.3112 19.4118 19.2773 19.4118 19.2365V17.0089C19.4118 16.9546 19.3982 16.9105 19.371 16.8766C19.3439 16.8426 19.3032 16.8189 19.2489 16.8053L17.0253 16.3533C16.9846 16.3397 16.949 16.338 16.9185 16.3482C16.8879 16.3584 16.8557 16.3804 16.8217 16.4144L14.9362 18.3203Z" fill="#979797"/>
</svg>
