<svg width="25" height="24" viewBox="0 0 25 24" fill="none" xmlns="http://www.w3.org/2000/svg">
<path d="M20.3393 8.2936L14.3397 3.63141C13.8132 3.22218 13.1651 3 12.498 3C11.831 3 11.1829 3.22218 10.6564 3.63141L4.65567 8.2936C4.29505 8.57379 4.00328 8.93261 3.80265 9.34265C3.60202 9.7527 3.49783 10.2031 3.49805 10.6595V18.7521C3.49805 19.3483 3.7351 19.92 4.15706 20.3416C4.57901 20.7632 5.15131 21 5.74805 21H19.248C19.8448 21 20.4171 20.7632 20.839 20.3416C21.261 19.92 21.498 19.3483 21.498 18.7521V10.6595C21.498 9.73452 21.0705 8.8612 20.3393 8.2936Z" stroke="#979797" stroke-width="1.5" stroke-linecap="round" stroke-linejoin="round"/>
<path d="M16.9982 15.375C14.5119 16.8746 10.4822 16.8746 7.99817 15.375" stroke="#979797" stroke-width="1.5" stroke-linecap="round" stroke-linejoin="round"/>
</svg>
