<svg width="24" height="24" viewBox="0 0 24 24" fill="none" xmlns="http://www.w3.org/2000/svg">
<path d="M3.99817 20.0526V19.1052C3.99817 15.9659 6.76841 13.421 10.1857 13.421H14.3107C17.7279 13.421 20.4982 15.9659 20.4982 19.1052V20.0526" fill="#FFB715"/>
<path d="M3.99817 20.0526V19.1052C3.99817 15.9659 6.76841 13.421 10.1857 13.421H14.3107C17.7279 13.421 20.4982 15.9659 20.4982 19.1052V20.0526" stroke="#FFB715" stroke-width="1.5" stroke-linecap="round"/>
<path d="M3.99817 20.0526V20.1879C3.99817 20.6364 6.76841 21 10.1857 21H14.3107C17.7279 21 20.4982 20.6364 20.4982 20.1879V20.0526" fill="#FFB715"/>
<path d="M3.99817 20.0526V20.1879C3.99817 20.6364 6.76841 21 10.1857 21H14.3107C17.7279 21 20.4982 20.6364 20.4982 20.1879V20.0526" stroke="#FFB715" stroke-width="1.5" stroke-linecap="round"/>
<path d="M12.2482 10.5789C9.96999 10.5789 8.12317 8.88231 8.12317 6.78944C8.12317 4.69657 9.96999 2.99997 12.2482 2.99997C14.5263 2.99997 16.3732 4.69657 16.3732 6.78944C16.3732 8.88231 14.5263 10.5789 12.2482 10.5789Z" fill="#FFB715" stroke="#FFB715" stroke-width="1.5" stroke-linecap="round"/>
</svg>
