<svg width="20" height="20" viewBox="0 0 20 20" fill="none" xmlns="http://www.w3.org/2000/svg">
<path d="M9.99995 14.1496C10.2007 14.1496 10.369 14.0817 10.5048 13.9459C10.6405 13.8101 10.7084 13.6419 10.7084 13.4411C10.7084 13.2404 10.6405 13.0721 10.5048 12.9363C10.369 12.8005 10.2007 12.7327 9.99995 12.7327C9.7992 12.7327 9.63094 12.8005 9.49515 12.9363C9.35936 13.0721 9.29146 13.2404 9.29146 13.4411C9.29146 13.6419 9.35936 13.8101 9.49515 13.9459C9.63094 14.0817 9.7992 14.1496 9.99995 14.1496ZM9.34208 10.2866C9.34208 10.65 9.63662 10.9445 9.99995 10.9445V10.9445C10.3633 10.9445 10.6578 10.65 10.6578 10.2866V6.33921C10.6578 5.97588 10.3633 5.68134 9.99995 5.68134V5.68134C9.63662 5.68134 9.34208 5.97588 9.34208 6.33921V10.2866ZM10.0014 18.3332C8.84884 18.3332 7.76548 18.1145 6.75133 17.677C5.73716 17.2396 4.85498 16.646 4.10479 15.8961C3.35458 15.1462 2.76067 14.2644 2.32305 13.2507C1.88543 12.237 1.66663 11.1539 1.66663 10.0013C1.66663 8.84873 1.88534 7.76536 2.32277 6.75121C2.7602 5.73704 3.35384 4.85486 4.10369 4.10467C4.85356 3.35446 5.73535 2.76055 6.74907 2.32293C7.76277 1.88531 8.84591 1.6665 9.99848 1.6665C11.1511 1.6665 12.2344 1.88522 13.2486 2.32265C14.2627 2.76007 15.1449 3.35372 15.8951 4.10357C16.6453 4.85344 17.2392 5.73524 17.6768 6.74895C18.1145 7.76265 18.3333 8.84579 18.3333 9.99837C18.3333 11.1509 18.1146 12.2343 17.6771 13.2485C17.2397 14.2626 16.6461 15.1448 15.8962 15.895C15.1463 16.6452 14.2645 17.2391 13.2508 17.6767C12.2371 18.1144 11.154 18.3332 10.0014 18.3332Z" fill="#979797"/>
</svg>
