<svg width="20" height="20" viewBox="0 0 20 20" fill="none" xmlns="http://www.w3.org/2000/svg">
<path d="M6.31925 17.0174H13.5055V14.3858C13.5055 13.3872 13.1563 12.533 12.4579 11.8234C11.7595 11.1138 10.911 10.7589 9.91237 10.7589C8.91371 10.7589 8.0652 11.1138 7.36682 11.8234C6.66844 12.533 6.31925 13.3872 6.31925 14.3858V17.0174ZM3.33344 18.3332V17.0174H5.00348V14.3858C5.00348 13.3984 5.27367 12.4996 5.81405 11.6893C6.35443 10.879 7.07054 10.3158 7.96237 9.99984C7.07054 9.67821 6.35443 9.11367 5.81405 8.30619C5.27367 7.49872 5.00348 6.60128 5.00348 5.61386V2.98228H3.33344V1.6665H16.4913V2.98228H14.8213V5.61386C14.8213 6.60128 14.5511 7.49872 14.0107 8.30619C13.4703 9.11367 12.7542 9.67821 11.8624 9.99984C12.7542 10.3158 13.4703 10.879 14.0107 11.6893C14.5511 12.4996 14.8213 13.3984 14.8213 14.3858V17.0174H16.4913V18.3332H3.33344Z" fill="#979797"/>
</svg>
