<svg width="20" height="20" viewBox="0 0 20 20" fill="none" xmlns="http://www.w3.org/2000/svg">
<path d="M8.50147 13.4776C8.64157 13.6177 8.8687 13.6177 9.0088 13.4776L14.1904 8.29605C14.4456 8.04078 14.4456 7.62691 14.1904 7.37164V7.37164C13.9351 7.11637 13.5212 7.11637 13.2659 7.37164L8.75514 11.8825L6.71734 9.84465C6.46207 9.58938 6.0482 9.58938 5.79293 9.84465V9.84465C5.53766 10.0999 5.53766 10.5138 5.79293 10.7691L8.50147 13.4776ZM10.0015 18.3332C8.84897 18.3332 7.7656 18.1145 6.75145 17.677C5.73728 17.2396 4.8551 16.646 4.10491 15.8961C3.3547 15.1462 2.76079 14.2644 2.32317 13.2507C1.88556 12.237 1.66675 11.1539 1.66675 10.0013C1.66675 8.84873 1.88546 7.76536 2.32289 6.75121C2.76032 5.73704 3.35396 4.85486 4.10381 4.10467C4.85368 3.35446 5.73547 2.76055 6.74919 2.32293C7.76289 1.88531 8.84603 1.6665 9.9986 1.6665C11.1512 1.6665 12.2345 1.88522 13.2487 2.32265C14.2629 2.76008 15.145 3.35372 15.8952 4.10357C16.6454 4.85344 17.2394 5.73524 17.677 6.74895C18.1146 7.76265 18.3334 8.84579 18.3334 9.99837C18.3334 11.1509 18.1147 12.2343 17.6773 13.2485C17.2398 14.2626 16.6462 15.1448 15.8963 15.895C15.1465 16.6452 14.2647 17.2391 13.251 17.6767C12.2373 18.1144 11.1541 18.3332 10.0015 18.3332Z" fill="#FFB715"/>
</svg>
