<svg width="20" height="20" viewBox="0 0 20 20" fill="none" xmlns="http://www.w3.org/2000/svg">
<path d="M10.0001 14.1496C10.2008 14.1496 10.3691 14.0817 10.5049 13.9459C10.6407 13.8101 10.7086 13.6419 10.7086 13.4411C10.7086 13.2404 10.6407 13.0721 10.5049 12.9363C10.3691 12.8005 10.2008 12.7327 10.0001 12.7327C9.79933 12.7327 9.63106 12.8005 9.49527 12.9363C9.35948 13.0721 9.29158 13.2404 9.29158 13.4411C9.29158 13.6419 9.35948 13.8101 9.49527 13.9459C9.63106 14.0817 9.79933 14.1496 10.0001 14.1496ZM9.3422 10.2866C9.3422 10.65 9.63674 10.9445 10.0001 10.9445V10.9445C10.3634 10.9445 10.6579 10.65 10.6579 10.2866V6.33921C10.6579 5.97588 10.3634 5.68134 10.0001 5.68134V5.68134C9.63674 5.68134 9.3422 5.97588 9.3422 6.33921V10.2866ZM10.0015 18.3332C8.84897 18.3332 7.7656 18.1145 6.75145 17.677C5.73728 17.2396 4.8551 16.646 4.10491 15.8961C3.3547 15.1462 2.76079 14.2644 2.32317 13.2507C1.88556 12.237 1.66675 11.1539 1.66675 10.0013C1.66675 8.84873 1.88546 7.76536 2.32289 6.75121C2.76032 5.73704 3.35396 4.85486 4.10381 4.10467C4.85368 3.35446 5.73547 2.76055 6.74919 2.32293C7.76289 1.88531 8.84603 1.6665 9.9986 1.6665C11.1512 1.6665 12.2345 1.88522 13.2487 2.32265C14.2629 2.76007 15.145 3.35372 15.8952 4.10357C16.6454 4.85344 17.2394 5.73524 17.677 6.74895C18.1146 7.76265 18.3334 8.84579 18.3334 9.99837C18.3334 11.1509 18.1147 12.2343 17.6773 13.2485C17.2398 14.2626 16.6462 15.1448 15.8963 15.895C15.1465 16.6452 14.2647 17.2391 13.251 17.6767C12.2373 18.1144 11.1541 18.3332 10.0015 18.3332Z" fill="#FFB715"/>
</svg>
