<svg width="24" height="24" viewBox="0 0 24 24" fill="none" xmlns="http://www.w3.org/2000/svg">
<path d="M3.00012 11.4C3.00012 9.96783 3.56905 8.59432 4.58175 7.58162C5.59444 6.56893 6.96795 6 8.40012 6H8.50012C8.89795 6 9.27948 6.15804 9.56078 6.43934C9.84209 6.72064 10.0001 7.10218 10.0001 7.5C10.0001 7.89782 9.84209 8.27936 9.56078 8.56066C9.27948 8.84196 8.89795 9 8.50012 9H8.40012C7.7636 9 7.15315 9.25286 6.70307 9.70294C6.25298 10.153 6.00012 10.7635 6.00012 11.4V12.6C6.00012 12.9152 6.0622 13.2273 6.18281 13.5184C6.30342 13.8096 6.48021 14.0742 6.70307 14.2971C6.92593 14.5199 7.1905 14.6967 7.48168 14.8173C7.77286 14.9379 8.08495 15 8.40012 15H8.50012C8.89795 15 9.27948 15.158 9.56078 15.4393C9.84209 15.7206 10.0001 16.1022 10.0001 16.5C10.0001 16.8978 9.84209 17.2794 9.56078 17.5607C9.27948 17.842 8.89795 18 8.50012 18H8.40012C6.96795 18 5.59444 17.4311 4.58175 16.4184C3.56905 15.4057 3.00012 14.0322 3.00012 12.6V11.4ZM21.0001 11.4C21.0001 9.96783 20.4312 8.59432 19.4185 7.58162C18.4058 6.56893 17.0323 6 15.6001 6H15.5001C15.1023 6 14.7208 6.15804 14.4395 6.43934C14.1582 6.72064 14.0001 7.10218 14.0001 7.5C14.0001 7.89782 14.1582 8.27936 14.4395 8.56066C14.7208 8.84196 15.1023 9 15.5001 9H15.6001C16.2366 9 16.8471 9.25286 17.2972 9.70294C17.7473 10.153 18.0001 10.7635 18.0001 11.4V12.6C18.0001 12.9152 17.938 13.2273 17.8174 13.5184C17.6968 13.8096 17.52 14.0742 17.2972 14.2971C17.0743 14.5199 16.8097 14.6967 16.5186 14.8173C16.2274 14.9379 15.9153 15 15.6001 15H15.5001C15.1023 15 14.7208 15.158 14.4395 15.4393C14.1582 15.7206 14.0001 16.1022 14.0001 16.5C14.0001 16.8978 14.1582 17.2794 14.4395 17.5607C14.7208 17.842 15.1023 18 15.5001 18H15.6001C17.0323 18 18.4058 17.4311 19.4185 16.4184C20.4312 15.4057 21.0001 14.0322 21.0001 12.6V11.4ZM9.50012 10.5C9.1023 10.5 8.72077 10.658 8.43946 10.9393C8.15816 11.2206 8.00012 11.6022 8.00012 12C8.00012 12.3978 8.15816 12.7794 8.43946 13.0607C8.72077 13.342 9.1023 13.5 9.50012 13.5H14.5001C14.8979 13.5 15.2795 13.342 15.5608 13.0607C15.8421 12.7794 16.0001 12.3978 16.0001 12C16.0001 11.6022 15.8421 11.2206 15.5608 10.9393C15.2795 10.658 14.8979 10.5 14.5001 10.5H9.50012Z" fill="#3C3C3C"/>
</svg>
