<svg width="16" height="16" viewBox="0 0 16 16" fill="none" xmlns="http://www.w3.org/2000/svg">
<path fill-rule="evenodd" clip-rule="evenodd" d="M10.5094 2.33334C10.8808 2.33335 11.2448 2.43676 11.5607 2.63198C11.8766 2.82721 12.1319 3.10653 12.2981 3.43867L13.2221 5.286C13.3847 5.21934 13.5447 5.14734 13.7021 5.07C13.8603 4.99097 14.0435 4.97803 14.2112 5.03404C14.379 5.09006 14.5177 5.21042 14.5967 5.36867C14.6758 5.52692 14.6887 5.71008 14.6327 5.87786C14.5767 6.04564 14.4563 6.1843 14.2981 6.26334C14.1378 6.33467 13.9767 6.40401 13.8147 6.47134L14.4554 7.75334C14.5944 8.0313 14.6668 8.33786 14.6667 8.64867V10.3333C14.6671 10.6148 14.6079 10.8931 14.493 11.1501C14.3781 11.407 14.2101 11.6367 14.0001 11.824V12.6667C14.0001 12.9319 13.8947 13.1862 13.7072 13.3738C13.5196 13.5613 13.2653 13.6667 13.0001 13.6667C12.7348 13.6667 12.4805 13.5613 12.2929 13.3738C12.1054 13.1862 12.0001 12.9319 12.0001 12.6667V12.3333H4.00004V12.6667C4.00004 12.9319 3.89469 13.1862 3.70715 13.3738C3.51961 13.5613 3.26526 13.6667 3.00004 13.6667C2.73483 13.6667 2.48047 13.5613 2.29294 13.3738C2.1054 13.1862 2.00004 12.9319 2.00004 12.6667V11.824C1.59071 11.4573 1.33337 10.9253 1.33337 10.3333V8.648C1.3335 8.33764 1.40585 8.03157 1.54471 7.754L2.18004 6.482C2.01937 6.414 1.86004 6.342 1.70337 6.264C1.54593 6.18394 1.42625 6.04522 1.37013 5.87774C1.31401 5.71025 1.32595 5.52743 1.40337 5.36867C1.44248 5.29029 1.49665 5.22038 1.56279 5.16295C1.62892 5.10551 1.70573 5.06167 1.78882 5.03394C1.8719 5.0062 1.95964 4.99511 2.04702 5.0013C2.13439 5.00748 2.21969 5.03083 2.29804 5.07C2.45538 5.148 2.61604 5.21934 2.77804 5.286L3.70204 3.43934C3.86808 3.10707 4.12336 2.82761 4.43928 2.63227C4.7552 2.43692 5.11928 2.33341 5.49071 2.33334H10.5094ZM5.00005 8.33334C4.73483 8.33334 4.48047 8.43869 4.29294 8.62623C4.1054 8.81377 4.00004 9.06812 4.00004 9.33334C4.00004 9.59855 4.1054 9.85291 4.29294 10.0404C4.48047 10.228 4.73483 10.3333 5.00005 10.3333C5.26526 10.3333 5.51962 10.228 5.70715 10.0404C5.89469 9.85291 6.00005 9.59855 6.00005 9.33334C6.00005 9.06812 5.89469 8.81377 5.70715 8.62623C5.51962 8.43869 5.26526 8.33334 5.00005 8.33334ZM11.0001 8.33334C10.7348 8.33334 10.4805 8.43869 10.2929 8.62623C10.1054 8.81377 10.0001 9.06812 10.0001 9.33334C10.0001 9.59855 10.1054 9.85291 10.2929 10.0404C10.4805 10.228 10.7348 10.3333 11.0001 10.3333C11.2653 10.3333 11.5196 10.228 11.7072 10.0404C11.8947 9.85291 12.0001 9.59855 12.0001 9.33334C12.0001 9.06812 11.8947 8.81377 11.7072 8.62623C11.5196 8.43869 11.2653 8.33334 11.0001 8.33334ZM10.5094 3.66667H5.49071C5.38098 3.66665 5.27295 3.69372 5.17619 3.74547C5.07943 3.79722 4.99694 3.87206 4.93604 3.96334L4.89471 4.03534L4.04804 5.72734C5.08005 6.03667 6.47071 6.33334 8.00005 6.33334C9.42805 6.33334 10.7341 6.07467 11.7401 5.78867L11.9514 5.72734L11.1054 4.03534C11.0563 3.93721 10.9838 3.85271 10.8943 3.78933C10.8047 3.72595 10.7009 3.68565 10.5921 3.672L10.5101 3.66667H10.5094Z" fill="#F9F9F9"/>
</svg>
