<svg width="24" height="24" viewBox="0 0 24 24" fill="none" xmlns="http://www.w3.org/2000/svg">
<path d="M5.98953 18.0104C6.34652 18.3674 6.93663 18.3601 7.28632 18.0104L11.9999 13.2968L16.7136 18.0104C17.0633 18.3601 17.6534 18.3674 18.0103 18.0104C18.3673 17.6534 18.3673 17.056 18.0176 16.7063L13.304 11.9927L18.0103 7.28638C18.36 6.93669 18.3673 6.34657 18.0103 5.98959C17.6534 5.63261 17.056 5.63261 16.7063 5.98231L11.9999 10.6886L7.29361 5.98231C6.94391 5.63261 6.34652 5.63261 5.98953 5.98959C5.63255 6.34657 5.63984 6.93669 5.98953 7.28638L10.6959 11.9927L5.98225 16.7063C5.63255 17.056 5.63255 17.6534 5.98953 18.0104Z" fill="#F9F9F9"/>
</svg>
