<svg width="20" height="20" viewBox="0 0 20 20" fill="none" xmlns="http://www.w3.org/2000/svg">
<path fill-rule="evenodd" clip-rule="evenodd" d="M3.61845 4.45157C3.80096 4.26912 4.04846 4.16662 4.30652 4.16662C4.56459 4.16662 4.81209 4.26912 4.9946 4.45157L9.86078 9.31775C10.0432 9.50026 10.1457 9.74776 10.1457 10.0058C10.1457 10.2639 10.0432 10.5114 9.86078 10.6939L4.9946 15.5601C4.81105 15.7374 4.56521 15.8355 4.31003 15.8332C4.05485 15.831 3.81075 15.7287 3.6303 15.5482C3.44986 15.3678 3.3475 15.1237 3.34528 14.8685C3.34307 14.6133 3.44116 14.3675 3.61845 14.1839L7.79655 10.0058L3.61845 5.82772C3.43599 5.64522 3.3335 5.39771 3.3335 5.13965C3.3335 4.88158 3.43599 4.63408 3.61845 4.45157ZM9.45786 4.45157C9.64037 4.26912 9.88787 4.16662 10.1459 4.16662C10.404 4.16662 10.6515 4.26912 10.834 4.45157L15.7002 9.31775C15.8827 9.50026 15.9852 9.74776 15.9852 10.0058C15.9852 10.2639 15.8827 10.5114 15.7002 10.6939L10.834 15.5601C10.6505 15.7374 10.4046 15.8355 10.1494 15.8332C9.89426 15.831 9.65016 15.7287 9.46972 15.5482C9.28927 15.3678 9.18692 15.1237 9.1847 14.8685C9.18248 14.6133 9.28058 14.3675 9.45786 14.1839L13.636 10.0058L9.45786 5.82772C9.27541 5.64522 9.17291 5.39771 9.17291 5.13965C9.17291 4.88158 9.27541 4.63408 9.45786 4.45157Z" fill="#FFB715"/>
</svg>
