<svg width="20" height="20" viewBox="0 0 20 20" fill="none" xmlns="http://www.w3.org/2000/svg">
<path d="M9.89336 12.2334C9.63716 12.2334 9.41886 12.1432 9.23844 11.9628C9.05803 11.7824 8.96782 11.5641 8.96782 11.3079C8.96782 11.0517 9.05803 10.8334 9.23844 10.6529C9.41886 10.4725 9.63716 10.3823 9.89336 10.3823C10.1496 10.3823 10.3679 10.4725 10.5483 10.6529C10.7287 10.8334 10.8189 11.0517 10.8189 11.3079C10.8189 11.5641 10.7287 11.7824 10.5483 11.9628C10.3679 12.1432 10.1496 12.2334 9.89336 12.2334ZM5.70824 12.2334C5.45204 12.2334 5.23373 12.1432 5.05332 11.9628C4.8729 11.7824 4.7827 11.5641 4.7827 11.3079C4.7827 11.0517 4.8729 10.8334 5.05332 10.6529C5.23373 10.4725 5.45204 10.3823 5.70824 10.3823C5.96444 10.3823 6.18274 10.4725 6.36316 10.6529C6.54357 10.8334 6.63378 11.0517 6.63378 11.3079C6.63378 11.5641 6.54357 11.7824 6.36316 11.9628C6.18274 12.1432 5.96444 12.2334 5.70824 12.2334ZM14.0785 12.2334C13.8223 12.2334 13.604 12.1432 13.4236 11.9628C13.2432 11.7824 13.1529 11.5641 13.1529 11.3079C13.1529 11.0517 13.2432 10.8334 13.4236 10.6529C13.604 10.4725 13.8223 10.3823 14.0785 10.3823C14.3347 10.3823 14.553 10.4725 14.7334 10.6529C14.9138 10.8334 15.004 11.0517 15.004 11.3079C15.004 11.5641 14.9138 11.7824 14.7334 11.9628C14.553 12.1432 14.3347 12.2334 14.0785 12.2334ZM9.89336 16.338C9.63716 16.338 9.41886 16.2478 9.23844 16.0674C9.05803 15.887 8.96782 15.6687 8.96782 15.4125C8.96782 15.1563 9.05803 14.938 9.23844 14.7576C9.41886 14.5772 9.63716 14.4869 9.89336 14.4869C10.1496 14.4869 10.3679 14.5772 10.5483 14.7576C10.7287 14.938 10.8189 15.1563 10.8189 15.4125C10.8189 15.6687 10.7287 15.887 10.5483 16.0674C10.3679 16.2478 10.1496 16.338 9.89336 16.338ZM5.70824 16.338C5.45204 16.338 5.23373 16.2478 5.05332 16.0674C4.8729 15.887 4.7827 15.6687 4.7827 15.4125C4.7827 15.1563 4.8729 14.938 5.05332 14.7576C5.23373 14.5772 5.45204 14.4869 5.70824 14.4869C5.96444 14.4869 6.18274 14.5772 6.36316 14.7576C6.54357 14.938 6.63378 15.1563 6.63378 15.4125C6.63378 15.6687 6.54357 15.887 6.36316 16.0674C6.18274 16.2478 5.96444 16.338 5.70824 16.338ZM14.0785 16.338C13.8223 16.338 13.604 16.2478 13.4236 16.0674C13.2432 15.887 13.1529 15.6687 13.1529 15.4125C13.1529 15.1563 13.2432 14.938 13.4236 14.7576C13.604 14.5772 13.8223 14.4869 14.0785 14.4869C14.3347 14.4869 14.553 14.5772 14.7334 14.7576C14.9138 14.938 15.004 15.1563 15.004 15.4125C15.004 15.6687 14.9138 15.887 14.7334 16.0674C14.553 16.2478 14.3347 16.338 14.0785 16.338ZM2.89136 20C2.36285 20 1.9155 19.8169 1.5493 19.4507C1.1831 19.0845 1 18.6371 1 18.1086V4.10464C1 3.57613 1.1831 3.12877 1.5493 2.76257C1.9155 2.39638 2.36285 2.21328 2.89136 2.21328H4.34007V0.804812C4.34007 0.360326 4.7004 0 5.14488 0C5.58937 0 5.94969 0.360327 5.94969 0.804812V2.21328H13.8773V0.784698C13.8773 0.351321 14.2286 0 14.662 0C15.0953 0 15.4467 0.351321 15.4467 0.784698V2.21328H16.8954C17.4239 2.21328 17.8712 2.39638 18.2374 2.76257C18.6036 3.12877 18.7867 3.57613 18.7867 4.10464V18.1086C18.7867 18.6371 18.6036 19.0845 18.2374 19.4507C17.8712 19.8169 17.4239 20 16.8954 20H2.89136ZM2.89136 18.4306H16.8954C16.9759 18.4306 17.0496 18.3971 17.1167 18.33C17.1838 18.2629 17.2173 18.1891 17.2173 18.1086V8.28976H2.5694V18.1086C2.5694 18.1891 2.60293 18.2629 2.66999 18.33C2.73708 18.3971 2.81087 18.4306 2.89136 18.4306Z" fill="#979797"/>
</svg>
