<svg width="20" height="20" viewBox="0 0 20 20" fill="none" xmlns="http://www.w3.org/2000/svg">
<path fill-rule="evenodd" clip-rule="evenodd" d="M13.1367 2.91669C13.601 2.9167 14.056 3.04597 14.4509 3.28999C14.8458 3.53402 15.1649 3.88318 15.3726 4.29835L16.5276 6.60752C16.7309 6.52419 16.9309 6.43419 17.1276 6.33752C17.3254 6.23873 17.5543 6.22256 17.7641 6.29257C17.9738 6.36259 18.1471 6.51305 18.2459 6.71085C18.3447 6.90866 18.3609 7.13761 18.2909 7.34734C18.2209 7.55707 18.0704 7.73039 17.8726 7.82919C17.6723 7.91835 17.4709 8.00503 17.2684 8.08919L18.0693 9.69169C18.2431 10.0391 18.3335 10.4223 18.3334 10.8109V12.9167C18.3339 13.2685 18.2599 13.6164 18.1163 13.9376C17.9727 14.2588 17.7627 14.5459 17.5001 14.78V15.8334C17.5001 16.1649 17.3684 16.4828 17.134 16.7172C16.8995 16.9517 16.5816 17.0834 16.2501 17.0834C15.9186 17.0834 15.6006 16.9517 15.3662 16.7172C15.1318 16.4828 15.0001 16.1649 15.0001 15.8334V15.4167H5.00008V15.8334C5.00008 16.1649 4.86839 16.4828 4.63397 16.7172C4.39954 16.9517 4.0816 17.0834 3.75008 17.0834C3.41856 17.0834 3.10062 16.9517 2.8662 16.7172C2.63178 16.4828 2.50008 16.1649 2.50008 15.8334V14.78C1.98841 14.3217 1.66675 13.6567 1.66675 12.9167V10.81C1.6669 10.4221 1.75734 10.0395 1.93091 9.69252L2.72508 8.10252C2.52425 8.01752 2.32508 7.92752 2.12925 7.83002C1.93244 7.72994 1.78284 7.55654 1.71269 7.34719C1.64254 7.13784 1.65747 6.9093 1.75425 6.71085C1.80313 6.61288 1.87084 6.5255 1.95351 6.4537C2.03618 6.38191 2.13219 6.32711 2.23605 6.29244C2.33991 6.25776 2.44958 6.2439 2.5588 6.25164C2.66802 6.25937 2.77465 6.28856 2.87258 6.33752C3.06925 6.43502 3.27008 6.52419 3.47258 6.60752L4.62758 4.29919C4.83512 3.88386 5.15422 3.53453 5.54912 3.29035C5.94402 3.04617 6.39912 2.91678 6.86342 2.91669H13.1367ZM6.25008 10.4167C5.91856 10.4167 5.60062 10.5484 5.3662 10.7828C5.13178 11.0172 5.00008 11.3352 5.00008 11.6667C5.00008 11.9982 5.13178 12.3162 5.3662 12.5506C5.60062 12.785 5.91856 12.9167 6.25008 12.9167C6.5816 12.9167 6.89955 12.785 7.13397 12.5506C7.36839 12.3162 7.50008 11.9982 7.50008 11.6667C7.50008 11.3352 7.36839 11.0172 7.13397 10.7828C6.89955 10.5484 6.5816 10.4167 6.25008 10.4167ZM13.7501 10.4167C13.4186 10.4167 13.1006 10.5484 12.8662 10.7828C12.6318 11.0172 12.5001 11.3352 12.5001 11.6667C12.5001 11.9982 12.6318 12.3162 12.8662 12.5506C13.1006 12.785 13.4186 12.9167 13.7501 12.9167C14.0816 12.9167 14.3995 12.785 14.634 12.5506C14.8684 12.3162 15.0001 11.9982 15.0001 11.6667C15.0001 11.3352 14.8684 11.0172 14.634 10.7828C14.3995 10.5484 14.0816 10.4167 13.7501 10.4167ZM13.1367 4.58335H6.86342C6.72626 4.58333 6.59121 4.61717 6.47026 4.68186C6.34932 4.74655 6.24621 4.84009 6.17008 4.95419L6.11842 5.04419L5.06008 7.15919C6.35008 7.54585 8.08842 7.91669 10.0001 7.91669C11.7851 7.91669 13.4176 7.59335 14.6751 7.23585L14.9392 7.15919L13.8818 5.04419C13.8204 4.92153 13.7298 4.81591 13.6178 4.73668C13.5059 4.65746 13.3761 4.60708 13.2401 4.59002L13.1376 4.58335H13.1367Z" fill="#979797"/>
</svg>
