<svg width="40" height="40" viewBox="0 0 40 40" fill="none" xmlns="http://www.w3.org/2000/svg">
<rect width="40" height="40" rx="12" fill="#97DB43"/>
<path d="M20.0006 9.99994C20.2728 9.99997 20.5355 10.0999 20.7389 10.2808C20.9422 10.4616 21.0722 10.7108 21.104 10.9811L21.1118 11.1111V28.89C21.1115 29.1732 21.003 29.4456 20.8086 29.6516C20.6142 29.8575 20.3485 29.9814 20.0657 29.998C19.783 30.0146 19.5046 29.9226 19.2874 29.7409C19.0702 29.5591 18.9307 29.3012 18.8972 29.02L18.8894 28.89V11.1111C18.8894 10.8164 19.0065 10.5338 19.2149 10.3254C19.4233 10.117 19.7059 9.99994 20.0006 9.99994ZM15.5559 13.3335C15.8506 13.3335 16.1332 13.4505 16.3416 13.6589C16.55 13.8673 16.6671 14.15 16.6671 14.4447V25.5565C16.6671 25.8512 16.55 26.1338 16.3416 26.3422C16.1332 26.5506 15.8506 26.6676 15.5559 26.6676C15.2612 26.6676 14.9786 26.5506 14.7702 26.3422C14.5618 26.1338 14.4447 25.8512 14.4447 25.5565V14.4447C14.4447 14.15 14.5618 13.8673 14.7702 13.6589C14.9786 13.4505 15.2612 13.3335 15.5559 13.3335ZM24.4453 13.3335C24.74 13.3335 25.0227 13.4505 25.2311 13.6589C25.4394 13.8673 25.5565 14.15 25.5565 14.4447V25.5565C25.5565 25.8512 25.4394 26.1338 25.2311 26.3422C25.0227 26.5506 24.74 26.6676 24.4453 26.6676C24.1506 26.6676 23.868 26.5506 23.6596 26.3422C23.4512 26.1338 23.3342 25.8512 23.3342 25.5565V14.4447C23.3342 14.15 23.4512 13.8673 23.6596 13.6589C23.868 13.4505 24.1506 13.3335 24.4453 13.3335ZM11.1112 16.667C11.4059 16.667 11.6885 16.7841 11.8969 16.9925C12.1053 17.2009 12.2224 17.4835 12.2224 17.7782V22.2229C12.2224 22.5176 12.1053 22.8002 11.8969 23.0086C11.6885 23.217 11.4059 23.3341 11.1112 23.3341C10.8165 23.3341 10.5338 23.217 10.3255 23.0086C10.1171 22.8002 10 22.5176 10 22.2229V17.7782C10 17.4835 10.1171 17.2009 10.3255 16.9925C10.5338 16.7841 10.8165 16.667 11.1112 16.667ZM28.8901 16.667C29.1622 16.6671 29.4249 16.767 29.6283 16.9478C29.8317 17.1287 29.9616 17.3779 29.9935 17.6482L30.0012 17.7782V22.2229C30.0009 22.5061 29.8925 22.7785 29.698 22.9845C29.5036 23.1904 29.2379 23.3144 28.9552 23.331C28.6724 23.3475 28.394 23.2556 28.1769 23.0738C27.9597 22.892 27.8201 22.6342 27.7867 22.3529L27.7789 22.2229V17.7782C27.7789 17.4835 27.8959 17.2009 28.1043 16.9925C28.3127 16.7841 28.5954 16.667 28.8901 16.667Z" fill="#F9F9F9"/>
</svg>
