<svg width="24" height="24" viewBox="0 0 24 24" fill="none" xmlns="http://www.w3.org/2000/svg">
<path d="M12.0006 1.99994C12.2728 1.99997 12.5355 2.0999 12.7389 2.28075C12.9422 2.46161 13.0722 2.71081 13.104 2.98111L13.1118 3.11112V20.89C13.1115 21.1732 13.003 21.4456 12.8086 21.6516C12.6142 21.8575 12.3485 21.9814 12.0657 21.998C11.783 22.0146 11.5046 21.9226 11.2874 21.7409C11.0702 21.5591 10.9307 21.3012 10.8972 21.02L10.8894 20.89V3.11112C10.8894 2.81642 11.0065 2.53378 11.2149 2.3254C11.4233 2.11701 11.7059 1.99994 12.0006 1.99994ZM7.5559 5.33348C7.8506 5.33348 8.13323 5.45055 8.34162 5.65893C8.55001 5.86732 8.66708 6.14995 8.66708 6.44466V17.5565C8.66708 17.8512 8.55001 18.1338 8.34162 18.3422C8.13323 18.5506 7.8506 18.6676 7.5559 18.6676C7.26119 18.6676 6.97856 18.5506 6.77018 18.3422C6.56179 18.1338 6.44472 17.8512 6.44472 17.5565V6.44466C6.44472 6.14995 6.56179 5.86732 6.77018 5.65893C6.97856 5.45055 7.26119 5.33348 7.5559 5.33348ZM16.4453 5.33348C16.74 5.33348 17.0227 5.45055 17.2311 5.65893C17.4394 5.86732 17.5565 6.14995 17.5565 6.44466V17.5565C17.5565 17.8512 17.4394 18.1338 17.2311 18.3422C17.0227 18.5506 16.74 18.6676 16.4453 18.6676C16.1506 18.6676 15.868 18.5506 15.6596 18.3422C15.4512 18.1338 15.3342 17.8512 15.3342 17.5565V6.44466C15.3342 6.14995 15.4512 5.86732 15.6596 5.65893C15.868 5.45055 16.1506 5.33348 16.4453 5.33348ZM3.11118 8.66702C3.40588 8.66702 3.68852 8.78409 3.8969 8.99247C4.10529 9.20086 4.22236 9.48349 4.22236 9.7782V14.2229C4.22236 14.5176 4.10529 14.8002 3.8969 15.0086C3.68852 15.217 3.40588 15.3341 3.11118 15.3341C2.81648 15.3341 2.53384 15.217 2.32546 15.0086C2.11707 14.8002 2 14.5176 2 14.2229V9.7782C2 9.48349 2.11707 9.20086 2.32546 8.99247C2.53384 8.78409 2.81648 8.66702 3.11118 8.66702ZM20.8901 8.66702C21.1622 8.66705 21.4249 8.76697 21.6283 8.94783C21.8317 9.12868 21.9616 9.37789 21.9935 9.64819L22.0012 9.7782V14.2229C22.0009 14.5061 21.8925 14.7785 21.698 14.9845C21.5036 15.1904 21.2379 15.3144 20.9552 15.331C20.6724 15.3475 20.394 15.2556 20.1769 15.0738C19.9597 14.892 19.8201 14.6342 19.7867 14.3529L19.7789 14.2229V9.7782C19.7789 9.48349 19.8959 9.20086 20.1043 8.99247C20.3127 8.78409 20.5954 8.66702 20.8901 8.66702Z" fill="#F9F9F9"/>
</svg>
