<svg width="20" height="20" viewBox="0 0 20 20" fill="none" xmlns="http://www.w3.org/2000/svg">
<path fill-rule="evenodd" clip-rule="evenodd" d="M13.1367 2.91669C13.6009 2.9167 14.0559 3.04597 14.4508 3.28999C14.8457 3.53402 15.1648 3.88318 15.3725 4.29835L16.5275 6.60752C16.7308 6.52419 16.9308 6.43419 17.1275 6.33752C17.3253 6.23873 17.5543 6.22256 17.764 6.29257C17.9737 6.36259 18.147 6.51305 18.2458 6.71085C18.3446 6.90866 18.3608 7.13761 18.2908 7.34734C18.2208 7.55707 18.0703 7.73039 17.8725 7.82919C17.6722 7.91835 17.4708 8.00503 17.2683 8.08919L18.0692 9.69169C18.243 10.0391 18.3334 10.4223 18.3333 10.8109V12.9167C18.3339 13.2685 18.2599 13.6164 18.1162 13.9376C17.9726 14.2588 17.7626 14.5459 17.5 14.78V15.8334C17.5 16.1649 17.3683 16.4828 17.1339 16.7172C16.8995 16.9517 16.5815 17.0834 16.25 17.0834C15.9185 17.0834 15.6005 16.9517 15.3661 16.7172C15.1317 16.4828 15 16.1649 15 15.8334V15.4167H5V15.8334C5 16.1649 4.86831 16.4828 4.63389 16.7172C4.39946 16.9517 4.08152 17.0834 3.75 17.0834C3.41848 17.0834 3.10054 16.9517 2.86612 16.7172C2.6317 16.4828 2.5 16.1649 2.5 15.8334V14.78C1.98833 14.3217 1.66667 13.6567 1.66667 12.9167V10.81C1.66682 10.4221 1.75726 10.0395 1.93083 9.69252L2.725 8.10252C2.52417 8.01752 2.325 7.92752 2.12917 7.83002C1.93236 7.72994 1.78276 7.55654 1.71261 7.34719C1.64246 7.13784 1.65739 6.9093 1.75417 6.71085C1.80305 6.61288 1.87076 6.5255 1.95343 6.4537C2.0361 6.38191 2.13211 6.32711 2.23597 6.29244C2.33983 6.25776 2.4495 6.2439 2.55872 6.25164C2.66794 6.25937 2.77457 6.28856 2.8725 6.33752C3.06917 6.43502 3.27 6.52419 3.4725 6.60752L4.6275 4.29919C4.83504 3.88386 5.15414 3.53453 5.54904 3.29035C5.94394 3.04617 6.39904 2.91678 6.86334 2.91669H13.1367ZM6.25 10.4167C5.91848 10.4167 5.60054 10.5484 5.36612 10.7828C5.1317 11.0172 5 11.3352 5 11.6667C5 11.9982 5.1317 12.3162 5.36612 12.5506C5.60054 12.785 5.91848 12.9167 6.25 12.9167C6.58152 12.9167 6.89947 12.785 7.13389 12.5506C7.36831 12.3162 7.5 11.9982 7.5 11.6667C7.5 11.3352 7.36831 11.0172 7.13389 10.7828C6.89947 10.5484 6.58152 10.4167 6.25 10.4167ZM13.75 10.4167C13.4185 10.4167 13.1005 10.5484 12.8661 10.7828C12.6317 11.0172 12.5 11.3352 12.5 11.6667C12.5 11.9982 12.6317 12.3162 12.8661 12.5506C13.1005 12.785 13.4185 12.9167 13.75 12.9167C14.0815 12.9167 14.3995 12.785 14.6339 12.5506C14.8683 12.3162 15 11.9982 15 11.6667C15 11.3352 14.8683 11.0172 14.6339 10.7828C14.3995 10.5484 14.0815 10.4167 13.75 10.4167ZM13.1367 4.58335H6.86334C6.72617 4.58333 6.59113 4.61717 6.47018 4.68186C6.34924 4.74655 6.24613 4.84009 6.17 4.95419L6.11834 5.04419L5.06 7.15919C6.35 7.54585 8.08834 7.91669 10 7.91669C11.785 7.91669 13.4175 7.59335 14.675 7.23585L14.9392 7.15919L13.8817 5.04419C13.8203 4.92153 13.7297 4.81591 13.6178 4.73668C13.5058 4.65746 13.3761 4.60708 13.24 4.59002L13.1375 4.58335H13.1367Z" fill="white"/>
</svg>
