<svg width="24" height="24" viewBox="0 0 24 24" fill="none" xmlns="http://www.w3.org/2000/svg">
<mask id="mask0_336_7203" style="mask-type:luminance" maskUnits="userSpaceOnUse" x="1" y="2" width="22" height="20">
<path d="M2.5 21H21.5H2.5Z" fill="#1C1C1C"/>
<path d="M2.5 21H21.5" stroke="#1C1C1C" stroke-width="1.5" stroke-linecap="round" stroke-linejoin="round"/>
<path d="M7.24996 13.421H5.34996C4.82529 13.421 4.39996 13.8452 4.39996 14.3684V20.0526C4.39996 20.5758 4.82529 21 5.34996 21H7.24996C7.77463 21 8.19996 20.5758 8.19996 20.0526V14.3684C8.19996 13.8452 7.77463 13.421 7.24996 13.421Z" fill="white" stroke="white" stroke-width="1.5" stroke-linejoin="round"/>
<path d="M6.29999 17.2106H6.77499" stroke="black" stroke-width="1.5" stroke-linecap="square" stroke-linejoin="round"/>
<path d="M18.65 3H9.14998C8.62531 3 8.19998 3.42415 8.19998 3.94737V20.0526C8.19998 20.5758 8.62531 21 9.14998 21H18.65C19.1747 21 19.6 20.5758 19.6 20.0526V3.94737C19.6 3.42415 19.1747 3 18.65 3Z" fill="white" stroke="white" stroke-width="1.5" stroke-linejoin="round"/>
<path d="M11.05 5.84216H12.95V7.7369H11.05V5.84216ZM14.85 5.84216H16.75V7.7369H14.85V5.84216ZM11.05 9.15795H12.95V11.0527H11.05V9.15795ZM14.85 9.15795H16.75V11.0527H14.85V9.15795ZM14.85 12.4737H16.75V14.3685H14.85V12.4737ZM14.85 15.7895H16.75V17.6843H14.85V15.7895Z" fill="black"/>
</mask>
<g mask="url(#mask0_336_7203)">
<path d="M0.600037 1.10522H23.4V23.8421H0.600037V1.10522Z" fill="#3C3C3C"/>
</g>
</svg>
